<svg width="280" height="220" viewBox="0 0 280 220" fill="none" xmlns="http://www.w3.org/2000/svg">
<g clip-path="url(#clip0)">
<path d="M246.957 85.9935H256.34V95.3262H246.957V85.9935Z" fill="#69F0AE"/>
<path d="M153.804 36.6639H163.186V45.9966H153.804V36.6639Z" fill="#69F0AE"/>
<path d="M154.809 85.9935H164.191V95.3262H154.809V85.9935Z" fill="#69F0AE"/>
<path d="M122.976 109.658H132.358V118.991H122.976V109.658Z" fill="#69F0AE"/>
<path d="M60.9854 85.9935H70.3677V95.3262H60.9854V85.9935Z" fill="#69F0AE"/>
<path d="M222.516 220C190.769 220 165.032 194.4 165.032 162.821C165.032 131.242 190.769 105.642 222.516 105.642C254.264 105.642 280 131.242 280 162.821C280 194.4 254.264 220 222.516 220Z" fill="url(#paint0_linear)"/>
<path d="M222.516 218.457C191.626 218.457 166.584 193.548 166.584 162.821C166.584 132.094 191.626 107.185 222.516 107.185C253.407 107.185 278.449 132.094 278.449 162.821C278.449 193.548 253.407 218.457 222.516 218.457Z" fill="black"/>
<path d="M222.516 208.024C197.418 208.024 177.072 187.786 177.072 162.821C177.072 137.856 197.418 117.618 222.516 117.618C247.614 117.618 267.96 137.856 267.96 162.821C267.96 187.786 247.614 208.024 222.516 208.024Z" fill="white"/>
<path d="M222.516 165.524C221.015 165.524 219.799 164.314 219.799 162.821C219.799 161.328 221.015 160.118 222.516 160.118C224.017 160.118 225.234 161.328 225.234 162.821C225.234 164.314 224.017 165.524 222.516 165.524Z" fill="url(#paint1_linear)"/>
<path d="M221.491 163.154L223.166 162.594L208.087 127.49L206.412 128.274L221.491 163.154Z" fill="url(#paint2_linear)"/>
<path d="M207.908 127.813L222.668 162.585L221.593 163.036L206.834 128.264L207.908 127.813Z" fill="#2196F3"/>
<path d="M213.114 181.486L222.831 163.488L221.491 162.821L211.438 180.486L213.114 181.486Z" fill="url(#paint3_linear)"/>
<path d="M221.621 162.942L222.645 163.495L212.935 181.269L211.911 180.715L221.621 162.942Z" fill="#2196F3"/>
<path d="M180.178 165.141C179.534 165.141 179.012 164.622 179.012 163.981C179.012 163.34 179.534 162.821 180.178 162.821C180.822 162.821 181.344 163.34 181.344 163.981C181.344 164.622 180.822 165.141 180.178 165.141Z" fill="black"/>
<path d="M257.673 142.748C257.255 142.028 257.503 141.106 258.227 140.69C258.952 140.274 259.878 140.521 260.296 141.242C260.715 141.962 260.466 142.884 259.742 143.3C259.018 143.716 258.091 143.469 257.673 142.748Z" fill="url(#paint4_linear)"/>
<path d="M257.84 186.183C257.115 185.767 256.867 184.846 257.286 184.125C257.704 183.405 258.63 183.158 259.354 183.574C260.079 183.99 260.327 184.911 259.909 185.632C259.491 186.352 258.564 186.599 257.84 186.183Z" fill="url(#paint5_linear)"/>
<path d="M264.851 165.488C264.014 165.488 263.336 164.813 263.336 163.981C263.336 163.149 264.014 162.474 264.851 162.474C265.687 162.474 266.365 163.149 266.365 163.981C266.365 164.813 265.687 165.488 264.851 165.488Z" fill="url(#paint6_linear)"/>
<path d="M242.771 127.846C242.047 127.43 241.798 126.508 242.217 125.788C242.635 125.067 243.561 124.82 244.286 125.236C245.01 125.652 245.258 126.574 244.84 127.294C244.422 128.015 243.496 128.262 242.771 127.846Z" fill="url(#paint7_linear)"/>
<path d="M221.797 122.439C221.072 122.023 220.824 121.102 221.242 120.381C221.66 119.66 222.587 119.414 223.311 119.83C224.036 120.246 224.284 121.167 223.866 121.888C223.447 122.608 222.521 122.855 221.797 122.439Z" fill="url(#paint8_linear)"/>
<path d="M200.823 127.848C200.098 127.432 199.85 126.51 200.268 125.79C200.686 125.069 201.613 124.822 202.337 125.238C203.062 125.654 203.31 126.576 202.892 127.296C202.473 128.017 201.547 128.264 200.823 127.848Z" fill="url(#paint9_linear)"/>
<path d="M185.287 143.302C184.562 142.886 184.314 141.965 184.732 141.244C185.151 140.524 186.077 140.277 186.801 140.693C187.526 141.109 187.774 142.03 187.356 142.751C186.938 143.471 186.011 143.718 185.287 143.302Z" fill="url(#paint10_linear)"/>
<path d="M185.674 186.187C184.949 185.771 184.701 184.849 185.119 184.129C185.538 183.408 186.464 183.161 187.188 183.577C187.913 183.993 188.161 184.915 187.743 185.635C187.324 186.356 186.398 186.603 185.674 186.187Z" fill="url(#paint11_linear)"/>
<path d="M201.6 201.253C200.875 200.837 200.627 199.916 201.045 199.195C201.464 198.475 202.39 198.228 203.114 198.644C203.839 199.06 204.087 199.981 203.669 200.702C203.25 201.422 202.324 201.669 201.6 201.253Z" fill="url(#paint12_linear)"/>
<path d="M221.798 205.892C221.074 205.476 220.826 204.554 221.244 203.834C221.662 203.113 222.588 202.866 223.313 203.282C224.037 203.698 224.286 204.62 223.867 205.34C223.449 206.061 222.523 206.308 221.798 205.892Z" fill="url(#paint13_linear)"/>
<path d="M241.994 201.255C241.27 200.839 241.021 199.917 241.44 199.197C241.858 198.476 242.784 198.229 243.509 198.645C244.233 199.061 244.481 199.983 244.063 200.703C243.645 201.424 242.718 201.671 241.994 201.255Z" fill="url(#paint14_linear)"/>
<path d="M222.516 122.254C221.872 122.254 221.35 121.735 221.35 121.094C221.35 120.454 221.872 119.934 222.516 119.934C223.16 119.934 223.682 120.454 223.682 121.094C223.682 121.735 223.16 122.254 222.516 122.254Z" fill="#69F0AE"/>
<path d="M200.532 127.263C200.21 126.709 200.401 125.999 200.959 125.679C201.516 125.359 202.23 125.549 202.552 126.103C202.874 126.658 202.683 127.368 202.125 127.688C201.567 128.008 200.854 127.818 200.532 127.263Z" fill="#69F0AE"/>
<path d="M185.606 142.962C185.048 142.642 184.857 141.933 185.179 141.378C185.501 140.823 186.214 140.633 186.772 140.953C187.33 141.274 187.521 141.983 187.199 142.538C186.877 143.093 186.164 143.283 185.606 142.962Z" fill="#69F0AE"/>
<path d="M185.422 185.459C185.1 184.905 185.291 184.195 185.849 183.875C186.406 183.555 187.12 183.745 187.442 184.299C187.764 184.854 187.573 185.564 187.015 185.884C186.457 186.204 185.744 186.014 185.422 185.459Z" fill="#69F0AE"/>
<path d="M201.774 200.874C201.216 200.553 201.025 199.844 201.347 199.289C201.669 198.734 202.382 198.544 202.94 198.865C203.498 199.185 203.689 199.894 203.367 200.449C203.045 201.004 202.332 201.194 201.774 200.874Z" fill="#69F0AE"/>
<path d="M242.908 127.691C242.351 127.371 242.16 126.662 242.482 126.107C242.804 125.552 243.517 125.362 244.074 125.682C244.632 126.003 244.823 126.712 244.501 127.267C244.179 127.822 243.466 128.012 242.908 127.691Z" fill="#69F0AE"/>
<path d="M257.833 142.539C257.511 141.984 257.702 141.274 258.259 140.954C258.817 140.634 259.53 140.824 259.852 141.379C260.174 141.933 259.983 142.643 259.426 142.963C258.868 143.283 258.155 143.093 257.833 142.539Z" fill="#69F0AE"/>
<path d="M179.458 165.325C178.734 164.909 178.485 163.988 178.904 163.267C179.322 162.546 180.248 162.3 180.973 162.716C181.697 163.132 181.945 164.053 181.527 164.774C181.109 165.494 180.182 165.741 179.458 165.325Z" fill="#69F0AE"/>
<path d="M258.014 185.883C257.456 185.563 257.265 184.853 257.587 184.299C257.909 183.744 258.622 183.554 259.18 183.874C259.738 184.194 259.929 184.904 259.607 185.459C259.285 186.013 258.572 186.203 258.014 185.883Z" fill="#69F0AE"/>
<path d="M241.666 200.451C241.344 199.896 241.535 199.186 242.093 198.866C242.65 198.546 243.364 198.736 243.686 199.291C244.008 199.845 243.816 200.555 243.259 200.875C242.701 201.195 241.988 201.005 241.666 200.451Z" fill="#69F0AE"/>
<path d="M264.851 165.141C264.207 165.141 263.685 164.622 263.685 163.981C263.685 163.34 264.207 162.821 264.851 162.821C265.495 162.821 266.017 163.34 266.017 163.981C266.017 164.622 265.495 165.141 264.851 165.141Z" fill="#69F0AE"/>
<path d="M222.516 205.704C221.872 205.704 221.35 205.185 221.35 204.545C221.35 203.904 221.872 203.385 222.516 203.385C223.16 203.385 223.682 203.904 223.682 204.545C223.682 205.185 223.16 205.704 222.516 205.704Z" fill="#69F0AE"/>
<path opacity="0.2" d="M265.628 167.071C265.625 157.11 262.315 147.429 256.212 139.531C250.109 131.634 241.555 125.963 231.878 123.398C222.202 120.834 211.945 121.52 202.701 125.35C193.457 129.18 185.743 135.94 180.758 144.579C183.204 138.927 186.784 133.831 191.28 129.604C195.775 125.376 201.09 122.106 206.901 119.994C212.711 117.881 218.894 116.971 225.07 117.318C231.246 117.665 237.286 119.263 242.82 122.013C248.354 124.764 253.265 128.609 257.253 133.313C261.241 138.018 264.221 143.483 266.011 149.373C267.801 155.263 268.364 161.455 267.664 167.568C266.964 173.682 265.017 179.59 261.942 184.929C264.382 179.289 265.636 173.211 265.628 167.071Z" fill="black"/>
<path d="M222.516 164.754C221.443 164.754 220.573 163.889 220.573 162.821C220.573 161.753 221.443 160.888 222.516 160.888C223.59 160.888 224.46 161.753 224.46 162.821C224.46 163.889 223.59 164.754 222.516 164.754Z" fill="#69F0AE"/>
</g>
<defs>
<linearGradient id="paint0_linear" x1="-19442.7" y1="75587.6" x2="-19442.7" y2="36351.4" gradientUnits="userSpaceOnUse">
<stop stop-color="#808080" stop-opacity="0.25"/>
<stop offset="0.54" stop-color="#808080" stop-opacity="0.12"/>
<stop offset="1" stop-color="#808080" stop-opacity="0.1"/>
</linearGradient>
<linearGradient id="paint1_linear" x1="-707.153" y1="2844.92" x2="-707.153" y2="2757.17" gradientUnits="userSpaceOnUse">
<stop stop-color="#808080" stop-opacity="0.25"/>
<stop offset="0.54" stop-color="#808080" stop-opacity="0.12"/>
<stop offset="1" stop-color="#808080" stop-opacity="0.1"/>
</linearGradient>
<linearGradient id="paint2_linear" x1="-3037.37" y1="17585" x2="-3037.37" y2="13769" gradientUnits="userSpaceOnUse">
<stop stop-color="#808080" stop-opacity="0.25"/>
<stop offset="0.54" stop-color="#808080" stop-opacity="0.12"/>
<stop offset="1" stop-color="#808080" stop-opacity="0.1"/>
</linearGradient>
<linearGradient id="paint3_linear" x1="-1914.59" y1="10326" x2="-1914.59" y2="9280.78" gradientUnits="userSpaceOnUse">
<stop stop-color="#808080" stop-opacity="0.25"/>
<stop offset="0.54" stop-color="#808080" stop-opacity="0.12"/>
<stop offset="1" stop-color="#808080" stop-opacity="0.1"/>
</linearGradient>
<linearGradient id="paint4_linear" x1="1508.01" y1="2528.52" x2="1484.39" y2="2514.81" gradientUnits="userSpaceOnUse">
<stop stop-color="#808080" stop-opacity="0.25"/>
<stop offset="0.54" stop-color="#808080" stop-opacity="0.12"/>
<stop offset="1" stop-color="#808080" stop-opacity="0.1"/>
</linearGradient>
<linearGradient id="paint5_linear" x1="-485.273" y1="2229.78" x2="-485.273" y2="2202.57" gradientUnits="userSpaceOnUse">
<stop stop-color="#808080" stop-opacity="0.25"/>
<stop offset="0.54" stop-color="#808080" stop-opacity="0.12"/>
<stop offset="1" stop-color="#808080" stop-opacity="0.1"/>
</linearGradient>
<linearGradient id="paint6_linear" x1="517.057" y1="2578.92" x2="503.474" y2="2555.27" gradientUnits="userSpaceOnUse">
<stop stop-color="#808080" stop-opacity="0.25"/>
<stop offset="0.54" stop-color="#808080" stop-opacity="0.12"/>
<stop offset="1" stop-color="#808080" stop-opacity="0.1"/>
</linearGradient>
<linearGradient id="paint7_linear" x1="2349.29" y1="1946.85" x2="2321.91" y2="1946.85" gradientUnits="userSpaceOnUse">
<stop stop-color="#808080" stop-opacity="0.25"/>
<stop offset="0.54" stop-color="#808080" stop-opacity="0.12"/>
<stop offset="1" stop-color="#808080" stop-opacity="0.1"/>
</linearGradient>
<linearGradient id="paint8_linear" x1="2154.26" y1="1918.82" x2="2126.87" y2="1918.82" gradientUnits="userSpaceOnUse">
<stop stop-color="#808080" stop-opacity="0.25"/>
<stop offset="0.54" stop-color="#808080" stop-opacity="0.12"/>
<stop offset="1" stop-color="#808080" stop-opacity="0.1"/>
</linearGradient>
<linearGradient id="paint9_linear" x1="1970.06" y1="1988.57" x2="1942.71" y2="1988.57" gradientUnits="userSpaceOnUse">
<stop stop-color="#808080" stop-opacity="0.25"/>
<stop offset="0.54" stop-color="#808080" stop-opacity="0.12"/>
<stop offset="1" stop-color="#808080" stop-opacity="0.1"/>
</linearGradient>
<linearGradient id="paint10_linear" x1="1845.16" y1="2143.73" x2="1817.78" y2="2143.73" gradientUnits="userSpaceOnUse">
<stop stop-color="#808080" stop-opacity="0.25"/>
<stop offset="0.54" stop-color="#808080" stop-opacity="0.12"/>
<stop offset="1" stop-color="#808080" stop-opacity="0.1"/>
</linearGradient>
<linearGradient id="paint11_linear" x1="1891.79" y1="2531" x2="1864.41" y2="2531" gradientUnits="userSpaceOnUse">
<stop stop-color="#808080" stop-opacity="0.25"/>
<stop offset="0.54" stop-color="#808080" stop-opacity="0.12"/>
<stop offset="1" stop-color="#808080" stop-opacity="0.1"/>
</linearGradient>
<linearGradient id="paint12_linear" x1="2050.87" y1="2651.4" x2="2023.52" y2="2651.4" gradientUnits="userSpaceOnUse">
<stop stop-color="#808080" stop-opacity="0.25"/>
<stop offset="0.54" stop-color="#808080" stop-opacity="0.12"/>
<stop offset="1" stop-color="#808080" stop-opacity="0.1"/>
</linearGradient>
<linearGradient id="paint13_linear" x1="2238.16" y1="2673.2" x2="2210.77" y2="2673.2" gradientUnits="userSpaceOnUse">
<stop stop-color="#808080" stop-opacity="0.25"/>
<stop offset="0.54" stop-color="#808080" stop-opacity="0.12"/>
<stop offset="1" stop-color="#808080" stop-opacity="0.1"/>
</linearGradient>
<linearGradient id="paint14_linear" x1="2416.06" y1="2611.2" x2="2388.7" y2="2611.2" gradientUnits="userSpaceOnUse">
<stop stop-color="#808080" stop-opacity="0.25"/>
<stop offset="0.54" stop-color="#808080" stop-opacity="0.12"/>
<stop offset="1" stop-color="#808080" stop-opacity="0.1"/>
</linearGradient>
<clipPath id="clip0">
<rect width="280" height="220" fill="white" transform="matrix(-1 0 0 1 280 0)"/>
</clipPath>
</defs>
</svg>
